<svg width="46" height="46" viewBox="0 0 46 46" fill="none" xmlns="http://www.w3.org/2000/svg">
<rect width="46" height="46" rx="9.33333" fill="#800020"/>
<path d="M28.7983 25.8466C30.3967 26.1149 32.1583 25.8349 33.395 25.0066C35.04 23.9099 35.04 22.1133 33.395 21.0166C32.1467 20.1883 30.3617 19.9083 28.7633 20.1883M17.1667 25.8466C15.5683 26.1149 13.8067 25.8349 12.57 25.0066C10.925 23.9099 10.925 22.1133 12.57 21.0166C13.8183 20.1883 15.6033 19.9083 17.2017 20.1883M30 17.3533C29.9266 17.3416 29.8518 17.3416 29.7783 17.3533C28.9997 17.3251 28.2626 16.9953 27.7227 16.4336C27.1827 15.872 26.8824 15.1224 26.885 14.3433C26.885 12.6749 28.2267 11.3333 29.895 11.3333C30.6933 11.3333 31.4589 11.6504 32.0234 12.2149C32.5879 12.7793 32.905 13.545 32.905 14.3433C32.9029 15.1229 32.5993 15.8715 32.0579 16.4325C31.5165 16.9935 30.7791 17.3234 30 17.3533ZM15.965 17.3533C16.035 17.3416 16.1167 17.3416 16.1867 17.3533C16.9653 17.3251 17.7024 16.9953 18.2423 16.4336C18.7822 15.872 19.0826 15.1224 19.08 14.3433C19.08 12.6749 17.7383 11.3333 16.07 11.3333C15.2717 11.3333 14.5061 11.6504 13.9416 12.2149C13.3771 12.7793 13.06 13.545 13.06 14.3433C13.0717 15.9766 14.355 17.2949 15.965 17.3533ZM23 26.0683C22.9266 26.0566 22.8518 26.0566 22.7783 26.0683C21.9997 26.0401 21.2626 25.7103 20.7227 25.1486C20.1827 24.587 19.8824 23.8374 19.885 23.0583C19.885 21.3899 21.2267 20.0483 22.895 20.0483C23.6933 20.0483 24.4589 20.3654 25.0234 20.9299C25.5879 21.4943 25.905 22.26 25.905 23.0583C25.8933 24.6916 24.61 26.0216 23 26.0683ZM19.605 29.7433C17.96 30.8399 17.96 32.6366 19.605 33.7333C21.4717 34.9816 24.5283 34.9816 26.395 33.7333C28.04 32.6366 28.04 30.8399 26.395 29.7433C24.54 28.5066 21.4717 28.5066 19.605 29.7433Z" stroke="white" stroke-width="2" stroke-linecap="round" stroke-linejoin="round"/>
</svg>
