<svg xmlns="http://www.w3.org/2000/svg" xmlns:xlink="http://www.w3.org/1999/xlink" width="500" zoomAndPan="magnify" viewBox="0 0 375 374.999991" height="500" preserveAspectRatio="xMidYMid meet" version="1.0"><path fill="#36404d" d="M 334.039062 193.777344 C 318.640625 231.027344 325.085938 215.441406 319.710938 228.453125 C 318.796875 222.765625 318.753906 222.425781 317.839844 216.738281 C 318.320312 215.578125 318.25 215.734375 318.457031 215.210938 C 318.753906 211.59375 320.097656 208.476562 321.417969 206.226562 C 322.441406 204.519531 321.167969 202.355469 319.1875 202.355469 C 299.683594 202.355469 309.824219 204.109375 310.710938 215.210938 C 310.914062 215.714844 310.847656 215.554688 311.347656 216.738281 C 310.4375 222.425781 310.371094 222.765625 309.457031 228.453125 C 305.949219 219.96875 307.863281 224.585938 295.128906 193.777344 C 285.035156 199.285156 277.519531 203.265625 271.867188 206.65625 C 273.03125 208.023438 274.078125 209.457031 275.011719 210.980469 C 281.640625 221.628906 282.027344 234.347656 282.804688 259.671875 L 282.871094 262.0625 C 282.941406 264.609375 282.734375 267.113281 282.28125 269.546875 L 356.25 269.546875 C 366.820312 269.546875 375.320312 260.832031 375 250.253906 C 373.816406 211.550781 374.523438 215.828125 334.039062 193.777344 " fill-opacity="1" fill-rule="nonzero"/><path fill="#36404d" d="M 285.902344 124.472656 C 300.1875 134.574219 329.4375 134.234375 343.21875 124.472656 L 343.21875 131.320312 C 329.597656 141.808594 301.234375 143.128906 285.855469 131.320312 Z M 338.367188 156.828125 C 338.824219 156.417969 339.871094 154.894531 340.210938 154.300781 C 341.695312 157.988281 341.601562 161.421875 338.480469 163.902344 C 338.6875 161.558594 338.6875 159.171875 338.367188 156.828125 C 336.136719 173.574219 325.65625 189.136719 314.835938 189.136719 C 302.898438 189.136719 292.851562 171.296875 290.890625 156.738281 C 290.570312 159.148438 290.59375 161.628906 290.824219 164.039062 C 287.40625 161.421875 287.429688 157.714844 289.160156 153.824219 C 289.683594 154.824219 290.253906 155.804688 290.890625 156.738281 C 291.253906 153.484375 292.007812 150.320312 292.988281 147.226562 C 306.292969 151.914062 323.332031 151.84375 336.523438 147.089844 C 337.980469 151.617188 338.574219 155.78125 338.367188 156.828125 Z M 265.742188 138.304688 C 265.742188 132.753906 265.742188 129.183594 265.742188 123.628906 C 269.019531 124.335938 277.972656 126.246094 280.867188 126.859375 L 280.867188 126.90625 L 280.890625 126.929688 C 280.890625 130.136719 280.890625 124.835938 280.890625 140.71875 C 282.417969 141.945312 284.148438 143.039062 285.96875 144.0625 C 286.199219 145.609375 286.539062 147.179688 287.042969 148.773438 C 280.546875 159.332031 284.808594 167.019531 291.6875 169.296875 C 299.070312 200.945312 330.324219 202.378906 337.683594 169.226562 C 344.679688 166.566406 348.230469 159.195312 342.492188 149.386719 C 343.105469 147.542969 343.515625 145.65625 343.8125 143.722656 C 345.40625 142.789062 346.910156 141.808594 348.277344 140.71875 C 348.277344 125.199219 348.277344 130.386719 348.277344 126.859375 C 350.101562 126.472656 363.859375 123.515625 365.773438 123.128906 C 331.121094 115.6875 354.746094 120.761719 314.5625 112.164062 C 311.851562 112.730469 301.027344 115.050781 263.347656 123.128906 L 263.734375 123.199219 C 263.734375 128.273438 263.734375 132.414062 263.734375 138.214844 C 262.347656 139.214844 259.929688 141.332031 259.929688 143.789062 C 259.929688 147.226562 262.050781 149.980469 264.667969 149.980469 C 267.289062 149.980469 269.429688 147.226562 269.429688 143.789062 C 269.429688 141.402344 267.152344 139.351562 265.742188 138.304688 " fill-opacity="1" fill-rule="nonzero"/><path fill="#36404d" d="M 67.292969 228.453125 C 66.378906 222.765625 66.3125 222.425781 65.402344 216.738281 C 65.878906 215.578125 65.8125 215.734375 66.039062 215.210938 C 66.335938 211.59375 67.65625 208.476562 69 206.226562 C 70.003906 204.519531 68.75 202.355469 66.746094 202.355469 C 47.265625 202.355469 57.40625 204.109375 58.292969 215.210938 C 58.5 215.714844 58.429688 215.554688 58.90625 216.738281 C 57.996094 222.425781 57.953125 222.765625 57.039062 228.453125 C 53.53125 219.96875 55.445312 224.585938 42.710938 193.777344 C 0.132812 216.964844 2.890625 213.527344 1.75 250.253906 C 1.429688 260.832031 9.929688 269.546875 20.5 269.546875 L 94.46875 269.546875 C 94.015625 267.113281 93.808594 264.609375 93.878906 262.0625 C 93.96875 258.96875 94.058594 256.054688 94.128906 253.347656 C 94.675781 231.890625 94.972656 220.082031 102.671875 209.636719 C 103.421875 208.589844 104.265625 207.589844 105.175781 206.613281 C 99.503906 203.265625 91.894531 199.375 81.621094 193.777344 C 66.222656 231.027344 72.667969 215.441406 67.292969 228.453125 " fill-opacity="1" fill-rule="nonzero"/><path fill="#36404d" d="M 33.460938 124.472656 C 47.746094 134.574219 76.996094 134.234375 90.800781 124.472656 L 90.800781 131.320312 C 77.15625 141.808594 48.816406 143.128906 33.4375 131.320312 Z M 85.949219 156.828125 C 83.71875 173.574219 73.238281 189.136719 62.394531 189.136719 C 50.457031 189.136719 40.410156 171.296875 38.472656 156.738281 C 38.152344 159.148438 38.152344 161.628906 38.382812 164.039062 C 34.964844 161.421875 35.011719 157.714844 36.71875 153.824219 C 37.265625 154.824219 37.835938 155.804688 38.472656 156.738281 C 38.835938 153.484375 39.566406 150.320312 40.570312 147.226562 C 53.851562 151.914062 70.914062 151.84375 84.082031 147.089844 C 85.539062 151.617188 86.15625 155.78125 85.949219 156.828125 Z M 12.230469 149.980469 C 14.871094 149.980469 16.992188 147.226562 16.992188 143.789062 C 16.992188 141.402344 14.710938 139.351562 13.324219 138.304688 C 13.324219 132.753906 13.324219 129.183594 13.324219 123.628906 C 16.582031 124.335938 25.535156 126.246094 28.449219 126.859375 L 28.449219 126.90625 L 28.472656 126.929688 C 28.472656 130.136719 28.472656 124.835938 28.472656 140.71875 C 30 141.945312 31.730469 143.039062 33.550781 144.0625 C 33.757812 145.609375 34.097656 147.179688 34.625 148.773438 C 28.109375 159.332031 32.390625 167.019531 39.246094 169.296875 C 46.628906 200.945312 77.886719 202.378906 85.242188 169.226562 C 92.261719 166.566406 95.8125 159.195312 90.050781 149.386719 C 90.664062 147.542969 91.097656 145.65625 91.371094 143.722656 C 92.964844 142.789062 94.492188 141.808594 95.835938 140.71875 C 95.835938 125.199219 95.835938 130.386719 95.835938 126.859375 C 97.683594 126.472656 111.441406 123.515625 113.332031 123.128906 C 78.707031 115.6875 102.308594 120.761719 62.121094 112.164062 C 59.410156 112.730469 48.609375 115.050781 10.929688 123.128906 L 11.316406 123.199219 C 11.316406 128.273438 11.316406 132.414062 11.316406 138.214844 C 9.929688 139.214844 7.492188 141.332031 7.492188 143.789062 C 7.492188 147.226562 9.609375 149.980469 12.230469 149.980469 " fill-opacity="1" fill-rule="nonzero"/><path fill="#3f77c4" d="M 147.324219 82.355469 C 167.757812 96.804688 209.605469 96.328125 229.335938 82.355469 L 229.359375 92.164062 C 209.835938 107.179688 169.261719 109.066406 147.277344 92.164062 Z M 222.410156 128.660156 C 223.046875 128.042969 224.527344 125.859375 225.03125 125.039062 C 227.171875 130.296875 227.035156 135.234375 222.570312 138.785156 C 222.867188 135.417969 222.84375 131.980469 222.410156 128.660156 C 219.199219 152.59375 204.207031 174.871094 188.714844 174.871094 C 171.628906 174.871094 157.253906 149.339844 154.476562 128.5 C 154.019531 131.957031 154.042969 135.53125 154.363281 138.941406 C 149.488281 135.210938 149.53125 129.910156 151.992188 124.359375 C 152.746094 125.792969 153.566406 127.179688 154.476562 128.5 C 155 123.878906 156.046875 119.328125 157.484375 114.894531 C 176.503906 121.605469 200.882812 121.515625 219.746094 114.734375 C 221.816406 121.171875 222.683594 127.15625 222.410156 128.660156 Z M 116.957031 118.875 C 120.714844 118.875 123.742188 114.894531 123.742188 109.976562 C 123.742188 106.566406 120.507812 103.652344 118.503906 102.152344 C 118.503906 94.210938 118.503906 89.113281 118.503906 81.148438 C 123.175781 82.152344 135.976562 84.902344 140.125 85.769531 L 140.125 85.859375 L 140.167969 85.882812 C 140.167969 90.457031 140.167969 82.855469 140.167969 105.585938 C 142.355469 107.363281 144.816406 108.933594 147.4375 110.386719 C 147.753906 112.59375 148.234375 114.824219 148.964844 117.121094 C 139.667969 132.230469 145.796875 143.222656 155.59375 146.496094 L 155.613281 146.476562 C 166.164062 191.777344 210.882812 193.800781 221.40625 146.382812 C 231.433594 142.582031 236.511719 132.027344 228.289062 117.988281 C 229.152344 115.371094 229.746094 112.664062 230.179688 109.886719 C 232.457031 108.566406 234.621094 107.179688 236.558594 105.585938 C 236.558594 83.425781 236.558594 90.84375 236.558594 85.769531 C 239.175781 85.199219 258.882812 80.992188 261.59375 80.421875 C 212.023438 69.796875 245.808594 77.03125 188.328125 64.746094 C 184.457031 65.5625 168.988281 68.886719 115.085938 80.421875 L 115.632812 80.535156 C 115.632812 87.769531 115.632812 93.734375 115.632812 102.015625 C 113.652344 103.449219 110.167969 106.453125 110.167969 109.976562 C 110.167969 114.894531 113.195312 118.875 116.957031 118.875 " fill-opacity="1" fill-rule="nonzero"/><path fill="#3f77c4" d="M 265.058594 211.164062 C 257.449219 202.765625 243.253906 196.234375 216.214844 181.515625 C 194.183594 234.824219 203.410156 212.503906 195.710938 231.117188 C 194.390625 222.972656 194.320312 222.515625 193.023438 214.347656 C 193.707031 212.6875 193.613281 212.914062 193.933594 212.164062 C 194.34375 207 196.257812 202.5625 198.148438 199.332031 C 199.605469 196.875 197.785156 193.777344 194.9375 193.777344 C 167.050781 193.777344 181.5625 196.304688 182.816406 212.164062 C 183.136719 212.890625 183.042969 212.664062 183.726562 214.347656 C 182.429688 222.515625 182.359375 222.972656 181.039062 231.117188 C 176.027344 218.988281 178.738281 225.566406 160.535156 181.515625 C 133.972656 195.984375 119.757812 203.199219 112.011719 211.117188 C 102.011719 221.332031 102.875 232.6875 101.964844 262.3125 C 101.875 264.816406 102.191406 267.226562 102.761719 269.546875 C 105.632812 281.21875 116.136719 289.910156 128.777344 289.910156 L 247.972656 289.910156 C 260.613281 289.910156 271.117188 281.21875 273.988281 269.546875 C 274.558594 267.226562 274.875 264.816406 274.785156 262.3125 C 273.894531 232.777344 273.757812 220.742188 265.058594 211.164062 " fill-opacity="1" fill-rule="nonzero"/></svg>