<svg xmlns="http://www.w3.org/2000/svg" xmlns:xlink="http://www.w3.org/1999/xlink" width="500" zoomAndPan="magnify" viewBox="0 0 375 374.999991" height="500" preserveAspectRatio="xMidYMid meet" version="1.0"><defs><g/><clipPath id="c11d5c643a"><path d="M 269 172 L 370.574219 172 L 370.574219 247 L 269 247 Z M 269 172 " clip-rule="nonzero"/></clipPath></defs><g clip-path="url(#c11d5c643a)"><path fill="#36404d" d="M 330.59375 172.066406 C 315.5625 208.457031 321.855469 193.230469 316.609375 205.945312 C 315.71875 200.386719 315.675781 200.054688 314.785156 194.496094 C 315.253906 193.363281 315.1875 193.519531 315.386719 193.007812 C 315.675781 189.472656 316.988281 186.425781 318.277344 184.226562 C 319.277344 182.558594 318.03125 180.449219 316.097656 180.449219 C 297.066406 180.449219 306.960938 182.160156 307.828125 193.007812 C 308.027344 193.496094 307.960938 193.339844 308.449219 194.496094 C 307.558594 200.054688 307.492188 200.386719 306.601562 205.945312 C 303.179688 197.652344 305.046875 202.167969 292.617188 172.066406 C 282.769531 177.445312 275.429688 181.335938 269.917969 184.648438 C 271.050781 185.984375 272.074219 187.382812 272.984375 188.871094 C 279.453125 199.277344 279.832031 211.703125 280.589844 236.445312 L 280.65625 238.78125 C 280.722656 241.269531 280.523438 243.714844 280.078125 246.09375 L 352.273438 246.09375 C 362.589844 246.09375 370.882812 237.578125 370.574219 227.242188 C 369.417969 189.429688 370.105469 193.609375 330.59375 172.066406 " fill-opacity="1" fill-rule="nonzero"/></g><path fill="#36404d" d="M 283.613281 104.355469 C 297.554688 114.222656 326.101562 113.890625 339.554688 104.355469 L 339.554688 111.046875 C 326.257812 121.292969 298.578125 122.582031 283.566406 111.046875 Z M 334.820312 135.964844 C 335.265625 135.566406 336.285156 134.074219 336.621094 133.496094 C 338.066406 137.097656 337.976562 140.457031 334.929688 142.878906 C 335.128906 140.589844 335.128906 138.253906 334.820312 135.964844 C 332.640625 152.328125 322.414062 167.53125 311.851562 167.53125 C 300.199219 167.53125 290.394531 150.105469 288.480469 135.875 C 288.171875 138.234375 288.191406 140.65625 288.414062 143.011719 C 285.082031 140.457031 285.101562 136.832031 286.792969 133.03125 C 287.304688 134.007812 287.859375 134.964844 288.480469 135.875 C 288.839844 132.699219 289.570312 129.609375 290.527344 126.585938 C 303.511719 131.164062 320.144531 131.097656 333.019531 126.449219 C 334.441406 130.875 335.019531 134.941406 334.820312 135.964844 Z M 263.933594 117.871094 C 263.933594 112.445312 263.933594 108.957031 263.933594 103.53125 C 267.136719 104.222656 275.875 106.089844 278.699219 106.6875 L 278.699219 106.734375 L 278.722656 106.753906 C 278.722656 109.890625 278.722656 104.710938 278.722656 120.226562 C 280.210938 121.425781 281.902344 122.492188 283.679688 123.496094 C 283.902344 125.007812 284.234375 126.539062 284.722656 128.097656 C 278.386719 138.410156 282.546875 145.925781 289.261719 148.148438 C 296.464844 179.070312 326.96875 180.46875 334.152344 148.082031 C 340.976562 145.480469 344.445312 138.277344 338.84375 128.695312 C 339.445312 126.894531 339.84375 125.050781 340.132812 123.160156 C 341.691406 122.25 343.15625 121.292969 344.492188 120.226562 C 344.492188 105.066406 344.492188 110.132812 344.492188 106.6875 C 346.269531 106.308594 359.699219 103.421875 361.566406 103.042969 C 327.75 95.773438 350.804688 100.730469 311.582031 92.328125 C 308.9375 92.882812 298.375 95.152344 261.601562 103.042969 L 261.976562 103.109375 C 261.976562 108.066406 261.976562 112.113281 261.976562 117.78125 C 260.621094 118.757812 258.265625 120.828125 258.265625 123.226562 C 258.265625 126.585938 260.332031 129.273438 262.890625 129.273438 C 265.445312 129.273438 267.539062 126.585938 267.539062 123.226562 C 267.539062 120.894531 265.3125 118.894531 263.933594 117.871094 " fill-opacity="1" fill-rule="nonzero"/><path fill="#36404d" d="M 70.25 205.945312 C 69.359375 200.386719 69.292969 200.054688 68.402344 194.496094 C 68.871094 193.363281 68.804688 193.519531 69.027344 193.007812 C 69.316406 189.472656 70.605469 186.425781 71.917969 184.226562 C 72.894531 182.558594 71.671875 180.449219 69.714844 180.449219 C 50.703125 180.449219 60.597656 182.160156 61.464844 193.007812 C 61.667969 193.496094 61.601562 193.339844 62.066406 194.496094 C 61.175781 200.054688 61.132812 200.386719 60.242188 205.945312 C 56.820312 197.652344 58.6875 202.167969 46.257812 172.066406 C 4.703125 194.71875 7.390625 191.363281 6.28125 227.242188 C 5.96875 237.578125 14.261719 246.09375 24.578125 246.09375 L 96.773438 246.09375 C 96.332031 243.714844 96.128906 241.269531 96.195312 238.78125 C 96.285156 235.757812 96.375 232.910156 96.441406 230.265625 C 96.976562 209.300781 97.265625 197.765625 104.78125 187.5625 C 105.511719 186.539062 106.335938 185.5625 107.226562 184.605469 C 101.6875 181.335938 94.261719 177.535156 84.234375 172.066406 C 69.203125 208.457031 75.496094 193.230469 70.25 205.945312 " fill-opacity="1" fill-rule="nonzero"/><path fill="#36404d" d="M 37.230469 104.355469 C 51.171875 114.222656 79.722656 113.890625 93.195312 104.355469 L 93.195312 111.046875 C 79.875 121.292969 52.21875 122.582031 37.207031 111.046875 Z M 88.460938 135.964844 C 86.28125 152.328125 76.050781 167.53125 65.46875 167.53125 C 53.816406 167.53125 44.011719 150.105469 42.121094 135.875 C 41.8125 138.234375 41.8125 140.65625 42.035156 143.011719 C 38.699219 140.457031 38.742188 136.832031 40.410156 133.03125 C 40.945312 134.007812 41.5 134.964844 42.121094 135.875 C 42.476562 132.699219 43.191406 129.609375 44.167969 126.585938 C 57.128906 131.164062 73.785156 131.097656 86.636719 126.449219 C 88.058594 130.875 88.660156 134.941406 88.460938 135.964844 Z M 16.507812 129.273438 C 19.085938 129.273438 21.15625 126.585938 21.15625 123.226562 C 21.15625 120.894531 18.933594 118.894531 17.574219 117.871094 C 17.574219 112.445312 17.574219 108.957031 17.574219 103.53125 C 20.753906 104.222656 29.492188 106.089844 32.339844 106.6875 L 32.339844 106.734375 L 32.363281 106.753906 C 32.363281 109.890625 32.363281 104.710938 32.363281 120.226562 C 33.851562 121.425781 35.539062 122.492188 37.320312 123.496094 C 37.519531 125.007812 37.851562 126.539062 38.363281 128.097656 C 32.003906 138.410156 36.1875 145.925781 42.878906 148.148438 C 50.082031 179.070312 80.589844 180.46875 87.769531 148.082031 C 94.617188 145.480469 98.085938 138.277344 92.460938 128.695312 C 93.0625 126.894531 93.484375 125.050781 93.75 123.160156 C 95.308594 122.25 96.796875 121.292969 98.109375 120.226562 C 98.109375 105.066406 98.109375 110.132812 98.109375 106.6875 C 99.910156 106.308594 113.339844 103.421875 115.183594 103.042969 C 81.390625 95.773438 104.425781 100.730469 65.203125 92.328125 C 62.554688 92.882812 52.015625 95.152344 15.242188 103.042969 L 15.617188 103.109375 C 15.617188 108.066406 15.617188 112.113281 15.617188 117.78125 C 14.261719 118.757812 11.882812 120.828125 11.882812 123.226562 C 11.882812 126.585938 13.949219 129.273438 16.507812 129.273438 " fill-opacity="1" fill-rule="nonzero"/><path fill="#3f77c4" d="M 148.359375 63.207031 C 168.304688 77.324219 209.148438 76.855469 228.402344 63.207031 L 228.425781 72.789062 C 209.371094 87.460938 169.769531 89.304688 148.316406 72.789062 Z M 221.644531 108.445312 C 222.265625 107.84375 223.710938 105.710938 224.203125 104.910156 C 226.292969 110.046875 226.160156 114.867188 221.800781 118.335938 C 222.089844 115.046875 222.066406 111.691406 221.644531 108.445312 C 218.511719 131.832031 203.878906 153.59375 188.761719 153.59375 C 172.082031 153.59375 158.054688 128.652344 155.339844 108.289062 C 154.894531 111.667969 154.917969 115.15625 155.230469 118.492188 C 150.472656 114.847656 150.515625 109.667969 152.917969 104.242188 C 153.652344 105.644531 154.453125 107 155.339844 108.289062 C 155.851562 103.777344 156.875 99.332031 158.277344 94.996094 C 176.84375 101.554688 200.632812 101.464844 219.042969 94.839844 C 221.066406 101.128906 221.910156 106.976562 221.644531 108.445312 Z M 118.722656 98.886719 C 122.390625 98.886719 125.347656 94.996094 125.347656 90.195312 C 125.347656 86.859375 122.1875 84.011719 120.234375 82.546875 C 120.234375 74.789062 120.234375 69.808594 120.234375 62.027344 C 124.789062 63.007812 137.285156 65.695312 141.332031 66.539062 L 141.332031 66.628906 L 141.378906 66.652344 C 141.378906 71.121094 141.378906 63.695312 141.378906 85.902344 C 143.511719 87.636719 145.914062 89.171875 148.46875 90.59375 C 148.78125 92.75 149.25 94.929688 149.960938 97.175781 C 140.886719 111.933594 146.871094 122.671875 156.429688 125.871094 L 156.453125 125.851562 C 166.746094 170.109375 210.394531 172.089844 220.667969 125.761719 C 230.449219 122.050781 235.40625 111.734375 227.382812 98.019531 C 228.226562 95.460938 228.804688 92.816406 229.226562 90.105469 C 231.449219 88.816406 233.5625 87.460938 235.453125 85.902344 C 235.453125 64.25 235.453125 71.5 235.453125 66.539062 C 238.007812 65.984375 257.242188 61.871094 259.886719 61.316406 C 211.507812 50.933594 244.480469 58.003906 188.382812 46 C 184.601562 46.800781 169.503906 50.046875 116.898438 61.316406 L 117.429688 61.429688 C 117.429688 68.496094 117.429688 74.320312 117.429688 82.414062 C 115.496094 83.8125 112.09375 86.746094 112.09375 90.195312 C 112.09375 94.996094 115.050781 98.886719 118.722656 98.886719 " fill-opacity="1" fill-rule="nonzero"/><path fill="#3f77c4" d="M 263.269531 189.050781 C 255.839844 180.847656 241.988281 174.46875 215.597656 160.085938 C 194.097656 212.171875 203.101562 190.363281 195.585938 208.546875 C 194.296875 200.589844 194.230469 200.144531 192.960938 192.164062 C 193.628906 190.539062 193.539062 190.761719 193.851562 190.027344 C 194.25 184.984375 196.121094 180.648438 197.964844 177.492188 C 199.386719 175.089844 197.609375 172.066406 194.828125 172.066406 C 167.613281 172.066406 181.777344 174.535156 183 190.027344 C 183.3125 190.738281 183.222656 190.519531 183.890625 192.164062 C 182.625 200.144531 182.554688 200.589844 181.265625 208.546875 C 176.375 196.699219 179.019531 203.121094 161.253906 160.085938 C 135.328125 174.222656 121.457031 181.269531 113.894531 189.007812 C 104.136719 198.988281 104.980469 210.082031 104.089844 239.023438 C 104 241.46875 104.3125 243.824219 104.867188 246.09375 C 107.671875 257.496094 117.921875 265.988281 130.261719 265.988281 L 246.59375 265.988281 C 258.933594 265.988281 269.183594 257.496094 271.984375 246.09375 C 272.539062 243.824219 272.851562 241.46875 272.761719 239.023438 C 271.894531 210.167969 271.761719 198.410156 263.269531 189.050781 " fill-opacity="1" fill-rule="nonzero"/><g fill="#000000" fill-opacity="1"><g transform="translate(9.316464, 305.579604)"><g><path d="M 25.6875 -3.6875 C 24.601562 -2.394531 23.070312 -1.390625 21.09375 -0.671875 C 19.113281 0.046875 16.925781 0.40625 14.53125 0.40625 C 12 0.40625 9.78125 -0.144531 7.875 -1.25 C 5.976562 -2.351562 4.507812 -3.953125 3.46875 -6.046875 C 2.4375 -8.148438 1.910156 -10.613281 1.890625 -13.4375 L 1.890625 -15.421875 C 1.890625 -18.335938 2.378906 -20.859375 3.359375 -22.984375 C 4.335938 -25.117188 5.75 -26.75 7.59375 -27.875 C 9.445312 -29.007812 11.617188 -29.578125 14.109375 -29.578125 C 17.566406 -29.578125 20.269531 -28.75 22.21875 -27.09375 C 24.164062 -25.445312 25.320312 -23.046875 25.6875 -19.890625 L 19.828125 -19.890625 C 19.566406 -21.566406 18.976562 -22.789062 18.0625 -23.5625 C 17.144531 -24.332031 15.882812 -24.71875 14.28125 -24.71875 C 12.238281 -24.71875 10.679688 -23.945312 9.609375 -22.40625 C 8.546875 -20.875 8.007812 -18.59375 8 -15.5625 L 8 -13.703125 C 8 -10.640625 8.578125 -8.328125 9.734375 -6.765625 C 10.898438 -5.203125 12.601562 -4.421875 14.84375 -4.421875 C 17.101562 -4.421875 18.710938 -4.90625 19.671875 -5.875 L 19.671875 -10.90625 L 14.203125 -10.90625 L 14.203125 -15.328125 L 25.6875 -15.328125 Z M 25.6875 -3.6875 "/></g></g></g><g fill="#000000" fill-opacity="1"><g transform="translate(37.259484, 305.579604)"><g><path d="M 8.609375 -4.828125 L 21.375 -4.828125 L 21.375 0 L 2.609375 0 L 2.609375 -29.171875 L 8.609375 -29.171875 Z M 8.609375 -4.828125 "/></g></g></g><g fill="#000000" fill-opacity="1"><g transform="translate(59.473687, 305.579604)"><g><path d="M 26.5625 -13.921875 C 26.5625 -11.046875 26.050781 -8.523438 25.03125 -6.359375 C 24.019531 -4.203125 22.566406 -2.535156 20.671875 -1.359375 C 18.785156 -0.179688 16.625 0.40625 14.1875 0.40625 C 11.769531 0.40625 9.613281 -0.171875 7.71875 -1.328125 C 5.820312 -2.492188 4.351562 -4.15625 3.3125 -6.3125 C 2.269531 -8.476562 1.738281 -10.960938 1.71875 -13.765625 L 1.71875 -15.203125 C 1.71875 -18.078125 2.234375 -20.601562 3.265625 -22.78125 C 4.304688 -24.96875 5.769531 -26.644531 7.65625 -27.8125 C 9.550781 -28.988281 11.710938 -29.578125 14.140625 -29.578125 C 16.578125 -29.578125 18.738281 -28.988281 20.625 -27.8125 C 22.507812 -26.644531 23.96875 -24.96875 25 -22.78125 C 26.039062 -20.601562 26.5625 -18.082031 26.5625 -15.21875 Z M 20.46875 -15.25 C 20.46875 -18.300781 19.921875 -20.625 18.828125 -22.21875 C 17.734375 -23.8125 16.171875 -24.609375 14.140625 -24.609375 C 12.128906 -24.609375 10.570312 -23.820312 9.46875 -22.25 C 8.375 -20.675781 7.820312 -18.375 7.8125 -15.34375 L 7.8125 -13.921875 C 7.8125 -10.941406 8.359375 -8.628906 9.453125 -6.984375 C 10.546875 -5.347656 12.125 -4.53125 14.1875 -4.53125 C 16.195312 -4.53125 17.742188 -5.320312 18.828125 -6.90625 C 19.910156 -8.488281 20.457031 -10.796875 20.46875 -13.828125 Z M 20.46875 -15.25 "/></g></g></g><g fill="#000000" fill-opacity="1"><g transform="translate(87.797286, 305.579604)"><g><path d="M 2.609375 0 L 2.609375 -29.171875 L 12.828125 -29.171875 C 16.359375 -29.171875 19.039062 -28.492188 20.875 -27.140625 C 22.707031 -25.785156 23.625 -23.796875 23.625 -21.171875 C 23.625 -19.742188 23.253906 -18.484375 22.515625 -17.390625 C 21.785156 -16.304688 20.765625 -15.507812 19.453125 -15 C 20.953125 -14.625 22.128906 -13.867188 22.984375 -12.734375 C 23.847656 -11.609375 24.28125 -10.222656 24.28125 -8.578125 C 24.28125 -5.773438 23.382812 -3.648438 21.59375 -2.203125 C 19.800781 -0.765625 17.25 -0.03125 13.9375 0 Z M 8.609375 -12.703125 L 8.609375 -4.828125 L 13.765625 -4.828125 C 15.179688 -4.828125 16.285156 -5.164062 17.078125 -5.84375 C 17.867188 -6.519531 18.265625 -7.453125 18.265625 -8.640625 C 18.265625 -11.304688 16.882812 -12.660156 14.125 -12.703125 Z M 8.609375 -16.953125 L 13.0625 -16.953125 C 16.09375 -17.003906 17.609375 -18.210938 17.609375 -20.578125 C 17.609375 -21.898438 17.222656 -22.847656 16.453125 -23.421875 C 15.691406 -24.003906 14.484375 -24.296875 12.828125 -24.296875 L 8.609375 -24.296875 Z M 8.609375 -16.953125 "/></g></g></g><g fill="#000000" fill-opacity="1"><g transform="translate(113.977594, 305.579604)"><g><path d="M 19.078125 -6.015625 L 8.53125 -6.015625 L 6.53125 0 L 0.140625 0 L 11 -29.171875 L 16.5625 -29.171875 L 27.484375 0 L 21.09375 0 Z M 10.15625 -10.875 L 17.453125 -10.875 L 13.78125 -21.796875 Z M 10.15625 -10.875 "/></g></g></g><g fill="#000000" fill-opacity="1"><g transform="translate(141.580083, 305.579604)"><g><path d="M 8.609375 -4.828125 L 21.375 -4.828125 L 21.375 0 L 2.609375 0 L 2.609375 -29.171875 L 8.609375 -29.171875 Z M 8.609375 -4.828125 "/></g></g></g><g fill="#000000" fill-opacity="1"><g transform="translate(163.794285, 305.579604)"><g/></g></g><g fill="#000000" fill-opacity="1"><g transform="translate(174.010011, 305.579604)"><g><path d="M 25.5 -9.71875 C 25.269531 -6.582031 24.109375 -4.109375 22.015625 -2.296875 C 19.929688 -0.492188 17.179688 0.40625 13.765625 0.40625 C 10.023438 0.40625 7.082031 -0.851562 4.9375 -3.375 C 2.789062 -5.894531 1.71875 -9.351562 1.71875 -13.75 L 1.71875 -15.53125 C 1.71875 -18.332031 2.210938 -20.800781 3.203125 -22.9375 C 4.191406 -25.070312 5.601562 -26.710938 7.4375 -27.859375 C 9.28125 -29.003906 11.414062 -29.578125 13.84375 -29.578125 C 17.207031 -29.578125 19.914062 -28.671875 21.96875 -26.859375 C 24.03125 -25.054688 25.222656 -22.53125 25.546875 -19.28125 L 19.53125 -19.28125 C 19.382812 -21.15625 18.859375 -22.515625 17.953125 -23.359375 C 17.054688 -24.210938 15.6875 -24.640625 13.84375 -24.640625 C 11.84375 -24.640625 10.34375 -23.921875 9.34375 -22.484375 C 8.351562 -21.046875 7.84375 -18.820312 7.8125 -15.8125 L 7.8125 -13.609375 C 7.8125 -10.453125 8.285156 -8.144531 9.234375 -6.6875 C 10.191406 -5.238281 11.703125 -4.515625 13.765625 -4.515625 C 15.617188 -4.515625 17.003906 -4.9375 17.921875 -5.78125 C 18.835938 -6.625 19.363281 -7.9375 19.5 -9.71875 Z M 25.5 -9.71875 "/></g></g></g><g fill="#000000" fill-opacity="1"><g transform="translate(200.851328, 305.579604)"><g><path d="M 26.5625 -13.921875 C 26.5625 -11.046875 26.050781 -8.523438 25.03125 -6.359375 C 24.019531 -4.203125 22.566406 -2.535156 20.671875 -1.359375 C 18.785156 -0.179688 16.625 0.40625 14.1875 0.40625 C 11.769531 0.40625 9.613281 -0.171875 7.71875 -1.328125 C 5.820312 -2.492188 4.351562 -4.15625 3.3125 -6.3125 C 2.269531 -8.476562 1.738281 -10.960938 1.71875 -13.765625 L 1.71875 -15.203125 C 1.71875 -18.078125 2.234375 -20.601562 3.265625 -22.78125 C 4.304688 -24.96875 5.769531 -26.644531 7.65625 -27.8125 C 9.550781 -28.988281 11.710938 -29.578125 14.140625 -29.578125 C 16.578125 -29.578125 18.738281 -28.988281 20.625 -27.8125 C 22.507812 -26.644531 23.96875 -24.96875 25 -22.78125 C 26.039062 -20.601562 26.5625 -18.082031 26.5625 -15.21875 Z M 20.46875 -15.25 C 20.46875 -18.300781 19.921875 -20.625 18.828125 -22.21875 C 17.734375 -23.8125 16.171875 -24.609375 14.140625 -24.609375 C 12.128906 -24.609375 10.570312 -23.820312 9.46875 -22.25 C 8.375 -20.675781 7.820312 -18.375 7.8125 -15.34375 L 7.8125 -13.921875 C 7.8125 -10.941406 8.359375 -8.628906 9.453125 -6.984375 C 10.546875 -5.347656 12.125 -4.53125 14.1875 -4.53125 C 16.195312 -4.53125 17.742188 -5.320312 18.828125 -6.90625 C 19.910156 -8.488281 20.457031 -10.796875 20.46875 -13.828125 Z M 20.46875 -15.25 "/></g></g></g><g fill="#000000" fill-opacity="1"><g transform="translate(229.174928, 305.579604)"><g><path d="M 24.6875 -29.171875 L 24.6875 -9.953125 C 24.6875 -6.765625 23.6875 -4.238281 21.6875 -2.375 C 19.6875 -0.519531 16.957031 0.40625 13.5 0.40625 C 10.09375 0.40625 7.390625 -0.492188 5.390625 -2.296875 C 3.390625 -4.109375 2.367188 -6.585938 2.328125 -9.734375 L 2.328125 -29.171875 L 8.328125 -29.171875 L 8.328125 -9.921875 C 8.328125 -8.003906 8.785156 -6.609375 9.703125 -5.734375 C 10.617188 -4.859375 11.882812 -4.421875 13.5 -4.421875 C 16.882812 -4.421875 18.601562 -6.195312 18.65625 -9.75 L 18.65625 -29.171875 Z M 24.6875 -29.171875 "/></g></g></g><g fill="#000000" fill-opacity="1"><g transform="translate(256.176492, 305.579604)"><g><path d="M 13.40625 -10.671875 L 8.609375 -10.671875 L 8.609375 0 L 2.609375 0 L 2.609375 -29.171875 L 13.4375 -29.171875 C 16.882812 -29.171875 19.539062 -28.398438 21.40625 -26.859375 C 23.28125 -25.328125 24.21875 -23.160156 24.21875 -20.359375 C 24.21875 -18.367188 23.785156 -16.707031 22.921875 -15.375 C 22.066406 -14.050781 20.765625 -12.992188 19.015625 -12.203125 L 25.328125 -0.28125 L 25.328125 0 L 18.875 0 Z M 8.609375 -15.546875 L 13.46875 -15.546875 C 14.976562 -15.546875 16.144531 -15.925781 16.96875 -16.6875 C 17.800781 -17.457031 18.21875 -18.519531 18.21875 -19.875 C 18.21875 -21.25 17.828125 -22.328125 17.046875 -23.109375 C 16.265625 -23.898438 15.0625 -24.296875 13.4375 -24.296875 L 8.609375 -24.296875 Z M 8.609375 -15.546875 "/></g></g></g><g fill="#000000" fill-opacity="1"><g transform="translate(282.356815, 305.579604)"><g><path d="M 17.734375 -7.65625 C 17.734375 -8.789062 17.332031 -9.660156 16.53125 -10.265625 C 15.726562 -10.867188 14.285156 -11.507812 12.203125 -12.1875 C 10.117188 -12.863281 8.46875 -13.53125 7.25 -14.1875 C 3.9375 -15.976562 2.28125 -18.390625 2.28125 -21.421875 C 2.28125 -22.992188 2.722656 -24.394531 3.609375 -25.625 C 4.503906 -26.863281 5.78125 -27.832031 7.4375 -28.53125 C 9.101562 -29.226562 10.972656 -29.578125 13.046875 -29.578125 C 15.128906 -29.578125 16.984375 -29.195312 18.609375 -28.4375 C 20.242188 -27.6875 21.507812 -26.625 22.40625 -25.25 C 23.3125 -23.875 23.765625 -22.3125 23.765625 -20.5625 L 17.75 -20.5625 C 17.75 -21.894531 17.328125 -22.929688 16.484375 -23.671875 C 15.640625 -24.410156 14.457031 -24.78125 12.9375 -24.78125 C 11.46875 -24.78125 10.328125 -24.46875 9.515625 -23.84375 C 8.703125 -23.226562 8.296875 -22.410156 8.296875 -21.390625 C 8.296875 -20.441406 8.769531 -19.644531 9.71875 -19 C 10.675781 -18.363281 12.082031 -17.765625 13.9375 -17.203125 C 17.363281 -16.179688 19.859375 -14.90625 21.421875 -13.375 C 22.984375 -11.851562 23.765625 -9.957031 23.765625 -7.6875 C 23.765625 -5.164062 22.804688 -3.1875 20.890625 -1.75 C 18.984375 -0.3125 16.414062 0.40625 13.1875 0.40625 C 10.9375 0.40625 8.890625 -0.00390625 7.046875 -0.828125 C 5.203125 -1.648438 3.796875 -2.773438 2.828125 -4.203125 C 1.859375 -5.628906 1.375 -7.285156 1.375 -9.171875 L 7.40625 -9.171875 C 7.40625 -5.953125 9.332031 -4.34375 13.1875 -4.34375 C 14.613281 -4.34375 15.726562 -4.632812 16.53125 -5.21875 C 17.332031 -5.800781 17.734375 -6.613281 17.734375 -7.65625 Z M 17.734375 -7.65625 "/></g></g></g><g fill="#000000" fill-opacity="1"><g transform="translate(307.575658, 305.579604)"><g><path d="M 20.15625 -12.640625 L 8.609375 -12.640625 L 8.609375 -4.828125 L 22.15625 -4.828125 L 22.15625 0 L 2.609375 0 L 2.609375 -29.171875 L 22.125 -29.171875 L 22.125 -24.296875 L 8.609375 -24.296875 L 8.609375 -17.34375 L 20.15625 -17.34375 Z M 20.15625 -12.640625 "/></g></g></g><g fill="#000000" fill-opacity="1"><g transform="translate(330.651178, 305.579604)"><g><path d="M 17.734375 -7.65625 C 17.734375 -8.789062 17.332031 -9.660156 16.53125 -10.265625 C 15.726562 -10.867188 14.285156 -11.507812 12.203125 -12.1875 C 10.117188 -12.863281 8.46875 -13.53125 7.25 -14.1875 C 3.9375 -15.976562 2.28125 -18.390625 2.28125 -21.421875 C 2.28125 -22.992188 2.722656 -24.394531 3.609375 -25.625 C 4.503906 -26.863281 5.78125 -27.832031 7.4375 -28.53125 C 9.101562 -29.226562 10.972656 -29.578125 13.046875 -29.578125 C 15.128906 -29.578125 16.984375 -29.195312 18.609375 -28.4375 C 20.242188 -27.6875 21.507812 -26.625 22.40625 -25.25 C 23.3125 -23.875 23.765625 -22.3125 23.765625 -20.5625 L 17.75 -20.5625 C 17.75 -21.894531 17.328125 -22.929688 16.484375 -23.671875 C 15.640625 -24.410156 14.457031 -24.78125 12.9375 -24.78125 C 11.46875 -24.78125 10.328125 -24.46875 9.515625 -23.84375 C 8.703125 -23.226562 8.296875 -22.410156 8.296875 -21.390625 C 8.296875 -20.441406 8.769531 -19.644531 9.71875 -19 C 10.675781 -18.363281 12.082031 -17.765625 13.9375 -17.203125 C 17.363281 -16.179688 19.859375 -14.90625 21.421875 -13.375 C 22.984375 -11.851562 23.765625 -9.957031 23.765625 -7.6875 C 23.765625 -5.164062 22.804688 -3.1875 20.890625 -1.75 C 18.984375 -0.3125 16.414062 0.40625 13.1875 0.40625 C 10.9375 0.40625 8.890625 -0.00390625 7.046875 -0.828125 C 5.203125 -1.648438 3.796875 -2.773438 2.828125 -4.203125 C 1.859375 -5.628906 1.375 -7.285156 1.375 -9.171875 L 7.40625 -9.171875 C 7.40625 -5.953125 9.332031 -4.34375 13.1875 -4.34375 C 14.613281 -4.34375 15.726562 -4.632812 16.53125 -5.21875 C 17.332031 -5.800781 17.734375 -6.613281 17.734375 -7.65625 Z M 17.734375 -7.65625 "/></g></g></g><g fill="#000000" fill-opacity="1"><g transform="translate(355.870021, 305.579604)"><g><path d="M 3.71875 7.3125 L 0.703125 5.734375 L 1.421875 4.421875 C 2.316406 2.796875 2.78125 1.175781 2.8125 -0.4375 L 2.8125 -4.921875 L 7.6875 -4.921875 L 7.671875 -0.921875 C 7.660156 0.554688 7.285156 2.050781 6.546875 3.5625 C 5.816406 5.070312 4.875 6.320312 3.71875 7.3125 Z M 3.71875 7.3125 "/></g></g></g><g fill="#000000" fill-opacity="1"><g transform="translate(36.633167, 362.008474)"><g><path d="M 8.609375 -4.828125 L 21.375 -4.828125 L 21.375 0 L 2.609375 0 L 2.609375 -29.171875 L 8.609375 -29.171875 Z M 8.609375 -4.828125 "/></g></g></g><g fill="#000000" fill-opacity="1"><g transform="translate(58.84737, 362.008474)"><g><path d="M 26.5625 -13.921875 C 26.5625 -11.046875 26.050781 -8.523438 25.03125 -6.359375 C 24.019531 -4.203125 22.566406 -2.535156 20.671875 -1.359375 C 18.785156 -0.179688 16.625 0.40625 14.1875 0.40625 C 11.769531 0.40625 9.613281 -0.171875 7.71875 -1.328125 C 5.820312 -2.492188 4.351562 -4.15625 3.3125 -6.3125 C 2.269531 -8.476562 1.738281 -10.960938 1.71875 -13.765625 L 1.71875 -15.203125 C 1.71875 -18.078125 2.234375 -20.601562 3.265625 -22.78125 C 4.304688 -24.96875 5.769531 -26.644531 7.65625 -27.8125 C 9.550781 -28.988281 11.710938 -29.578125 14.140625 -29.578125 C 16.578125 -29.578125 18.738281 -28.988281 20.625 -27.8125 C 22.507812 -26.644531 23.96875 -24.96875 25 -22.78125 C 26.039062 -20.601562 26.5625 -18.082031 26.5625 -15.21875 Z M 20.46875 -15.25 C 20.46875 -18.300781 19.921875 -20.625 18.828125 -22.21875 C 17.734375 -23.8125 16.171875 -24.609375 14.140625 -24.609375 C 12.128906 -24.609375 10.570312 -23.820312 9.46875 -22.25 C 8.375 -20.675781 7.820312 -18.375 7.8125 -15.34375 L 7.8125 -13.921875 C 7.8125 -10.941406 8.359375 -8.628906 9.453125 -6.984375 C 10.546875 -5.347656 12.125 -4.53125 14.1875 -4.53125 C 16.195312 -4.53125 17.742188 -5.320312 18.828125 -6.90625 C 19.910156 -8.488281 20.457031 -10.796875 20.46875 -13.828125 Z M 20.46875 -15.25 "/></g></g></g><g fill="#000000" fill-opacity="1"><g transform="translate(87.170969, 362.008474)"><g><path d="M 25.5 -9.71875 C 25.269531 -6.582031 24.109375 -4.109375 22.015625 -2.296875 C 19.929688 -0.492188 17.179688 0.40625 13.765625 0.40625 C 10.023438 0.40625 7.082031 -0.851562 4.9375 -3.375 C 2.789062 -5.894531 1.71875 -9.351562 1.71875 -13.75 L 1.71875 -15.53125 C 1.71875 -18.332031 2.210938 -20.800781 3.203125 -22.9375 C 4.191406 -25.070312 5.601562 -26.710938 7.4375 -27.859375 C 9.28125 -29.003906 11.414062 -29.578125 13.84375 -29.578125 C 17.207031 -29.578125 19.914062 -28.671875 21.96875 -26.859375 C 24.03125 -25.054688 25.222656 -22.53125 25.546875 -19.28125 L 19.53125 -19.28125 C 19.382812 -21.15625 18.859375 -22.515625 17.953125 -23.359375 C 17.054688 -24.210938 15.6875 -24.640625 13.84375 -24.640625 C 11.84375 -24.640625 10.34375 -23.921875 9.34375 -22.484375 C 8.351562 -21.046875 7.84375 -18.820312 7.8125 -15.8125 L 7.8125 -13.609375 C 7.8125 -10.453125 8.285156 -8.144531 9.234375 -6.6875 C 10.191406 -5.238281 11.703125 -4.515625 13.765625 -4.515625 C 15.617188 -4.515625 17.003906 -4.9375 17.921875 -5.78125 C 18.835938 -6.625 19.363281 -7.9375 19.5 -9.71875 Z M 25.5 -9.71875 "/></g></g></g><g fill="#000000" fill-opacity="1"><g transform="translate(114.012287, 362.008474)"><g><path d="M 19.078125 -6.015625 L 8.53125 -6.015625 L 6.53125 0 L 0.140625 0 L 11 -29.171875 L 16.5625 -29.171875 L 27.484375 0 L 21.09375 0 Z M 10.15625 -10.875 L 17.453125 -10.875 L 13.78125 -21.796875 Z M 10.15625 -10.875 "/></g></g></g><g fill="#000000" fill-opacity="1"><g transform="translate(141.614775, 362.008474)"><g><path d="M 8.609375 -4.828125 L 21.375 -4.828125 L 21.375 0 L 2.609375 0 L 2.609375 -29.171875 L 8.609375 -29.171875 Z M 8.609375 -4.828125 "/></g></g></g><g fill="#000000" fill-opacity="1"><g transform="translate(163.828978, 362.008474)"><g/></g></g><g fill="#000000" fill-opacity="1"><g transform="translate(174.044703, 362.008474)"><g><path d="M 20.15625 -11.921875 L 8.609375 -11.921875 L 8.609375 0 L 2.609375 0 L 2.609375 -29.171875 L 21.59375 -29.171875 L 21.59375 -24.296875 L 8.609375 -24.296875 L 8.609375 -16.765625 L 20.15625 -16.765625 Z M 20.15625 -11.921875 "/></g></g></g><g fill="#000000" fill-opacity="1"><g transform="translate(196.519298, 362.008474)"><g><path d="M 13.40625 -10.671875 L 8.609375 -10.671875 L 8.609375 0 L 2.609375 0 L 2.609375 -29.171875 L 13.4375 -29.171875 C 16.882812 -29.171875 19.539062 -28.398438 21.40625 -26.859375 C 23.28125 -25.328125 24.21875 -23.160156 24.21875 -20.359375 C 24.21875 -18.367188 23.785156 -16.707031 22.921875 -15.375 C 22.066406 -14.050781 20.765625 -12.992188 19.015625 -12.203125 L 25.328125 -0.28125 L 25.328125 0 L 18.875 0 Z M 8.609375 -15.546875 L 13.46875 -15.546875 C 14.976562 -15.546875 16.144531 -15.925781 16.96875 -16.6875 C 17.800781 -17.457031 18.21875 -18.519531 18.21875 -19.875 C 18.21875 -21.25 17.828125 -22.328125 17.046875 -23.109375 C 16.265625 -23.898438 15.0625 -24.296875 13.4375 -24.296875 L 8.609375 -24.296875 Z M 8.609375 -15.546875 "/></g></g></g><g fill="#000000" fill-opacity="1"><g transform="translate(222.699606, 362.008474)"><g><path d="M 9 0 L 2.984375 0 L 2.984375 -29.171875 L 9 -29.171875 Z M 9 0 "/></g></g></g><g fill="#000000" fill-opacity="1"><g transform="translate(234.658021, 362.008474)"><g><path d="M 20.15625 -12.640625 L 8.609375 -12.640625 L 8.609375 -4.828125 L 22.15625 -4.828125 L 22.15625 0 L 2.609375 0 L 2.609375 -29.171875 L 22.125 -29.171875 L 22.125 -24.296875 L 8.609375 -24.296875 L 8.609375 -17.34375 L 20.15625 -17.34375 Z M 20.15625 -12.640625 "/></g></g></g><g fill="#000000" fill-opacity="1"><g transform="translate(257.733542, 362.008474)"><g><path d="M 26.328125 0 L 20.3125 0 L 8.609375 -19.1875 L 8.609375 0 L 2.609375 0 L 2.609375 -29.171875 L 8.609375 -29.171875 L 20.328125 -9.9375 L 20.328125 -29.171875 L 26.328125 -29.171875 Z M 26.328125 0 "/></g></g></g><g fill="#000000" fill-opacity="1"><g transform="translate(286.698127, 362.008474)"><g><path d="M 2.609375 0 L 2.609375 -29.171875 L 11.578125 -29.171875 C 14.140625 -29.171875 16.429688 -28.59375 18.453125 -27.4375 C 20.484375 -26.28125 22.066406 -24.632812 23.203125 -22.5 C 24.335938 -20.375 24.90625 -17.957031 24.90625 -15.25 L 24.90625 -13.90625 C 24.90625 -11.195312 24.347656 -8.785156 23.234375 -6.671875 C 22.117188 -4.554688 20.546875 -2.914062 18.515625 -1.75 C 16.484375 -0.59375 14.191406 -0.0078125 11.640625 0 Z M 8.609375 -24.296875 L 8.609375 -4.828125 L 11.515625 -4.828125 C 13.867188 -4.828125 15.664062 -5.59375 16.90625 -7.125 C 18.144531 -8.664062 18.78125 -10.863281 18.8125 -13.71875 L 18.8125 -15.265625 C 18.8125 -18.234375 18.195312 -20.476562 16.96875 -22 C 15.738281 -23.53125 13.941406 -24.296875 11.578125 -24.296875 Z M 8.609375 -24.296875 "/></g></g></g><g fill="#000000" fill-opacity="1"><g transform="translate(313.35919, 362.008474)"><g><path d="M 17.734375 -7.65625 C 17.734375 -8.789062 17.332031 -9.660156 16.53125 -10.265625 C 15.726562 -10.867188 14.285156 -11.507812 12.203125 -12.1875 C 10.117188 -12.863281 8.46875 -13.53125 7.25 -14.1875 C 3.9375 -15.976562 2.28125 -18.390625 2.28125 -21.421875 C 2.28125 -22.992188 2.722656 -24.394531 3.609375 -25.625 C 4.503906 -26.863281 5.78125 -27.832031 7.4375 -28.53125 C 9.101562 -29.226562 10.972656 -29.578125 13.046875 -29.578125 C 15.128906 -29.578125 16.984375 -29.195312 18.609375 -28.4375 C 20.242188 -27.6875 21.507812 -26.625 22.40625 -25.25 C 23.3125 -23.875 23.765625 -22.3125 23.765625 -20.5625 L 17.75 -20.5625 C 17.75 -21.894531 17.328125 -22.929688 16.484375 -23.671875 C 15.640625 -24.410156 14.457031 -24.78125 12.9375 -24.78125 C 11.46875 -24.78125 10.328125 -24.46875 9.515625 -23.84375 C 8.703125 -23.226562 8.296875 -22.410156 8.296875 -21.390625 C 8.296875 -20.441406 8.769531 -19.644531 9.71875 -19 C 10.675781 -18.363281 12.082031 -17.765625 13.9375 -17.203125 C 17.363281 -16.179688 19.859375 -14.90625 21.421875 -13.375 C 22.984375 -11.851562 23.765625 -9.957031 23.765625 -7.6875 C 23.765625 -5.164062 22.804688 -3.1875 20.890625 -1.75 C 18.984375 -0.3125 16.414062 0.40625 13.1875 0.40625 C 10.9375 0.40625 8.890625 -0.00390625 7.046875 -0.828125 C 5.203125 -1.648438 3.796875 -2.773438 2.828125 -4.203125 C 1.859375 -5.628906 1.375 -7.285156 1.375 -9.171875 L 7.40625 -9.171875 C 7.40625 -5.953125 9.332031 -4.34375 13.1875 -4.34375 C 14.613281 -4.34375 15.726562 -4.632812 16.53125 -5.21875 C 17.332031 -5.800781 17.734375 -6.613281 17.734375 -7.65625 Z M 17.734375 -7.65625 "/></g></g></g></svg>