<svg width="46" height="46" viewBox="0 0 46 46" fill="none" xmlns="http://www.w3.org/2000/svg">
<rect width="46" height="46" rx="9.33333" fill="#800020"/>
<path d="M19.0234 19.9447C18.9665 19.3718 18.7227 18.9267 18.2918 18.6094C17.861 18.2922 17.2762 18.1336 16.5376 18.1336C16.0357 18.1336 15.6119 18.2046 15.2663 18.3467C14.9206 18.484 14.6555 18.6757 14.4708 18.9219C14.2909 19.1682 14.2009 19.4475 14.2009 19.76C14.1914 20.0204 14.2459 20.2477 14.3643 20.4418C14.4874 20.636 14.6555 20.804 14.8685 20.9461C15.0816 21.0834 15.3278 21.2041 15.6072 21.3083C15.8865 21.4077 16.1848 21.493 16.5021 21.564L17.8089 21.8765C18.4433 22.0185 19.0257 22.2079 19.556 22.4447C20.0863 22.6814 20.5456 22.9726 20.9339 23.3182C21.3221 23.6639 21.6228 24.0711 21.8359 24.5398C22.0537 25.0086 22.1649 25.546 22.1697 26.1521C22.1649 27.0422 21.9377 27.814 21.4878 28.4674C21.0428 29.1161 20.3988 29.6203 19.556 29.9802C18.718 30.3353 17.7071 30.5129 16.5234 30.5129C15.3491 30.5129 14.3264 30.3329 13.4552 29.9731C12.5887 29.6132 11.9116 29.0806 11.4239 28.3751C10.941 27.6648 10.6877 26.7865 10.664 25.7401H13.6398C13.673 26.2278 13.8127 26.635 14.0589 26.9617C14.3098 27.2837 14.6436 27.5275 15.0603 27.6932C15.4817 27.8542 15.9575 27.9347 16.4878 27.9347C17.0087 27.9347 17.4609 27.859 17.8444 27.7075C18.2326 27.5559 18.5333 27.3452 18.7464 27.0754C18.9594 26.8055 19.066 26.4953 19.066 26.145C19.066 25.8182 18.9689 25.5436 18.7748 25.3211C18.5854 25.0986 18.306 24.9092 17.9367 24.7529C17.5721 24.5967 17.1247 24.4546 16.5944 24.3268L15.0106 23.929C13.7842 23.6307 12.816 23.1644 12.1057 22.5299C11.3955 21.8954 11.0428 21.0408 11.0475 19.966C11.0428 19.0853 11.2771 18.3159 11.7506 17.6577C12.2289 16.9996 12.8846 16.4859 13.718 16.1165C14.5513 15.7472 15.4983 15.5626 16.5589 15.5626C17.6384 15.5626 18.5807 15.7472 19.3856 16.1165C20.1952 16.4859 20.825 16.9996 21.2748 17.6577C21.7246 18.3159 21.9566 19.0782 21.9708 19.9447H19.0234ZM24.2382 30.3069V15.7614H30.0621C31.1321 15.7614 32.0247 15.92 32.7396 16.2373C33.4546 16.5545 33.992 16.9949 34.3518 17.5583C34.7117 18.117 34.8916 18.761 34.8916 19.4901C34.8916 20.0583 34.778 20.5578 34.5507 20.9887C34.3234 21.4148 34.0109 21.7652 33.6132 22.0398C33.2202 22.3097 32.7704 22.5015 32.2638 22.6151V22.7572C32.8177 22.7808 33.3362 22.9371 33.8192 23.2259C34.3069 23.5147 34.7022 23.9196 35.0052 24.4404C35.3083 24.9565 35.4598 25.572 35.4598 26.287C35.4598 27.0588 35.268 27.7477 34.8845 28.3538C34.5057 28.9551 33.9446 29.4309 33.2013 29.7813C32.4579 30.1317 31.5417 30.3069 30.4527 30.3069H24.2382ZM27.3135 27.7927H29.8206C30.6776 27.7927 31.3026 27.6293 31.6956 27.3026C32.0886 26.9712 32.2851 26.5308 32.2851 25.9816C32.2851 25.5791 32.188 25.224 31.9939 24.9163C31.7998 24.6085 31.5228 24.367 31.1629 24.1918C30.8078 24.0166 30.384 23.929 29.8916 23.929H27.3135V27.7927ZM27.3135 21.8481H29.5933C30.0147 21.8481 30.3888 21.7747 30.7155 21.6279C31.0469 21.4764 31.3073 21.2633 31.4967 20.9887C31.6909 20.7141 31.7879 20.385 31.7879 20.0015C31.7879 19.4759 31.6009 19.0522 31.2268 18.7302C30.8575 18.4082 30.332 18.2472 29.6501 18.2472H27.3135V21.8481Z" fill="white"/>
</svg>
